<?xml version="1.0" encoding="utf-8"?>
<!-- Generator: Adobe Illustrator 25.4.1, SVG Export Plug-In . SVG Version: 6.00 Build 0)  -->
<svg version="1.1" id="Layer_1" xmlns="http://www.w3.org/2000/svg" xmlns:xlink="http://www.w3.org/1999/xlink" x="0px" y="0px"
	 viewBox="0 0 375.4 85.1" style="enable-background:new 0 0 375.4 85.1;" xml:space="preserve">
<style type="text/css">
	.st0{fill:#51C4CD;}
</style>
<g>
	<g>
		<path class="st0" d="M44,47.6c-1.4,2.4-2.9,4.7-4.6,7.1c-1.7,2.4-3.5,4.7-5.3,6.8c-1.9,2.2-3.8,4.2-5.9,6.1
			c-2,1.9-4.1,3.5-6.2,4.9c-2.1,1.4-4.2,2.5-6.3,3.3c-2.1,0.8-4.2,1.2-6.2,1.2c-1.6,0-3.1-0.4-4.3-1.1C4,75.2,3,74.3,2.2,73.2
			c-0.8-1.1-1.4-2.5-1.8-4c-0.4-1.5-0.5-3.3-0.4-5C0.3,61.9,1,59.2,2,56.3c1-3,2.3-6.1,3.8-9.4c1.6-3.3,3.4-6.6,5.4-10
			c2-3.4,4.2-6.7,6.6-9.9c2.4-3.2,4.8-6.2,7.5-9.1c2.6-2.8,5.3-5.3,8-7.4c2.7-2.1,5.4-3.8,8.1-5c2.7-1.3,5.4-1.9,8-2
			c1.6,0,2.9,0.1,3.9,0.4c1,0.3,1.8,0.8,2.4,1.4c0.6,0.6,0.9,1.3,1.1,2.2c0.1,0.9,0.1,1.8,0,2.9c-0.2,1.1-0.5,2.2-1,3.5
			c-0.5,1.2-1.2,2.5-2,3.8c-0.8,1.3-1.6,2.6-2.5,3.9c-0.9,1.3-1.9,2.6-2.8,3.8c-0.2,0.2-0.5,0.5-0.8,0.8c-0.3,0.3-0.7,0.6-1.1,0.8
			c-0.4,0.3-0.8,0.5-1.3,0.7c-0.5,0.2-1,0.3-1.5,0.3c-0.4,0-0.9-0.1-1.6-0.4c-0.7-0.3-1.5-0.7-2.5-1.4c0.9-0.6,1.9-1.5,3-2.7
			c1.1-1.2,2.2-2.5,3.3-3.9c1.1-1.4,2.1-2.8,2.9-4.2c0.9-1.4,1.5-2.6,1.9-3.7c0.2-0.4,0.3-0.7,0.4-1c0.1-0.3,0.1-0.5,0.1-0.7
			c0.1-0.5,0-0.8-0.4-1c-0.4-0.2-1.1-0.4-1.8-0.4c-1.5,0-3.4,1-5.3,2.3c-1.9,1.3-3.9,3-5.9,5c-2,2-4.1,4.2-6.1,6.7
			c-2,2.5-3.9,5-5.7,7.5c-1.8,2.5-3.4,4.9-4.8,7.3c-1.4,2.3-2.6,4.3-3.5,5.9c-1,1.8-1.9,3.8-2.9,5.7c-0.9,2-1.8,4-2.5,6.2
			c-0.4,1.2-0.8,2.4-1.1,3.5c-0.3,1.1-0.5,2.1-0.7,3c-0.4,2.3-0.4,4.2,0.1,5.7s1.5,2.2,2.9,2.2c1.5,0,3.2-0.3,4.8-1
			c1.7-0.7,3.3-1.7,5-2.9c1.7-1.2,3.3-2.6,4.9-4.2c1.6-1.6,3.1-3.3,4.6-5.1c1.5-1.8,2.9-3.6,4.2-5.4c1.3-1.8,2.5-3.5,3.5-5.1
			c0.2-0.2,0.5-0.3,1-0.3c0.5,0,1,0.2,1.4,0.4c0.5,0.2,0.8,0.5,1.1,0.8c0.3,0.3,0.3,0.6,0,0.9C44,47.7,44,47.7,44,47.6z"/>
		<path class="st0" d="M67.4,40.8c0,0.2-0.2,0.4-0.5,0.6c-0.3,0.1-0.6,0.2-0.9,0.3c-0.4,0.1-0.7,0.1-1.1,0.1c-0.4,0-0.7-0.1-1-0.2
			c0.6,0.4,1.1,0.8,1.6,1.2c0.5,0.5,0.9,1,1.2,1.6c0.3,0.6,0.5,1.2,0.6,1.8c0.1,0.6,0,1.2-0.2,1.7c-0.2,0.3-0.3,0.6-0.5,0.9
			c-0.2,0.3-0.4,0.7-0.6,1.1c-0.4,0.8-0.9,1.6-1.3,2.5c-0.5,0.9-0.9,1.7-1.3,2.6c-0.4,0.8-0.8,1.6-1.1,2.4c-0.3,0.7-0.5,1.4-0.6,1.9
			c0,0.1,0,0.1-0.1,0.2c-0.1,0-0.1,0.1-0.2,0.1c0.2,0,0.3,0,0.4,0c1.2-0.4,2.4-1.1,3.5-2c1.1-0.9,2.2-2,3.3-3.2
			c1.1-1.2,2.1-2.5,3.1-3.8c1-1.3,1.9-2.6,2.8-3.9c0.3-0.3,0.6-0.6,0.7-0.8c0.2-0.2,0.3-0.5,0.5-0.8c0.1-0.2,0.5-0.3,0.9-0.2
			c0.4,0.1,0.9,0.3,1.3,0.6c0.4,0.3,0.7,0.6,1,1c0.2,0.4,0.2,0.7,0,1c-0.7,1-1,1.4-1.7,2.4c0,0,0,0,0,0.1c-1.7,2.4-3.5,4.7-5.4,7
			c-1.9,2.3-3.9,4.4-6.2,6.3c-0.4,0.3-0.8,0.7-1.3,1.1c-0.5,0.4-1.1,0.8-1.8,1.1c-0.7,0.3-1.4,0.6-2.1,0.9c-0.8,0.2-1.6,0.3-2.3,0.3
			c-1.9-0.1-3.3-0.8-4.1-2c-0.8-1.2-1.1-2.7-0.9-4.5c-1.8,1.7-3.6,3.2-5.5,4.5c-1.8,1.3-3.7,2-5.3,2c-1.4,0-2.7-0.5-3.6-1.2
			c-0.9-0.7-1.6-1.5-2-2.4c-0.4-0.9-0.7-2-0.8-3.1c-0.1-1.1-0.1-2.2,0.1-3.1c0.1-0.9,0.3-1.6,0.5-2.2c0.4-1.5,1.1-3.1,2-4.9
			c0.9-1.8,2-3.6,3.3-5.4c1.3-1.8,2.7-3.5,4.2-5.2c1.5-1.7,3.2-3.2,4.9-4.5c1.7-1.3,3.5-2.4,5.2-3.2c1.8-0.8,3.5-1.2,5.3-1.2
			c0.5,0,1,0,1.5,0.1c0.5,0.1,1,0.2,1.6,0.3c1,0.3,1.7,0.8,2.2,1.5c0.5,0.7,0.8,1.5,1,2.5c0.2,0.9,0.2,1.9,0.2,3
			C67.8,38.7,67.7,39.7,67.4,40.8z M60.4,40.8c0.4-0.2,0.9-0.3,1.4-0.1c0.5,0.1,1.1,0.3,1.6,0.6c-0.2-0.2-0.3-0.4-0.2-0.7
			c0-0.1,0-0.3,0-0.4c0-0.2,0-0.3,0-0.5c0.1-0.4,0.1-0.8,0.1-1.3c0-0.4-0.1-0.8-0.2-1.2c-0.1-0.4-0.3-0.7-0.6-0.9
			c-0.3-0.2-0.7-0.4-1.1-0.4c-1.4-0.1-3,0.5-4.6,1.6c-1.6,1.1-3.1,2.5-4.5,4.2c-1.4,1.7-2.8,3.5-3.9,5.5c-1.2,1.9-2.1,3.7-2.8,5.3
			c-0.2,0.4-0.4,1-0.6,1.7c-0.2,0.7-0.3,1.3-0.4,2c-0.1,0.4-0.1,0.9-0.1,1.3c0,0.4,0.1,0.7,0.3,1c0.2,0.3,0.5,0.4,0.8,0.5
			c0.4,0.1,0.9,0,1.5-0.2c0.6-0.2,1.4-0.6,2.3-1.4c0.9-0.8,1.9-1.7,2.9-2.7c1-1,2-2.1,3-3.3c1-1.2,1.9-2.3,2.5-3.2
			c0.6-1.1,1.2-2.4,1.6-3.5c0.5-1.1,0.8-2.1,1-2.9C60.5,41.4,60.5,41.2,60.4,40.8z"/>
		<path class="st0" d="M97.1,54.5c-1.1,1.3-2.4,2.7-3.7,4.1C92,60,90.6,61.3,89,62.5c-1.5,1.2-3.1,2.1-4.7,2.8c-1.6,0.7-3.3,1-4.9,1
			c-0.9,0-1.7-0.3-2.3-0.7c-0.6-0.4-1.1-0.9-1.5-1.6c-0.3-0.7-0.6-1.4-0.6-2.2c-0.1-0.8-0.1-1.7,0.1-2.6c0.3-1.3,0.7-2.6,1.2-3.7
			c0.5-1.2,1.1-2.3,1.8-3.3c0.7-1,1.4-2.1,2.2-3.1c0.8-1,1.6-2,2.5-3.1c0.6-0.7,0.9-1,1.4-1.7c0,0,0,0,0,0.1c0.7-0.8,1-1.2,1.7-2
			c0.3-0.4,0.8-0.8,1.3-1.2c0.5-0.4,1.4-0.7,2.5-1c-0.6,0.1-1,0.2-1.4,0.3c-0.4,0.1-0.7,0.1-1,0.2c-0.5,0.1-1,0.2-1.6,0.4
			c-0.5,0.1-1.1,0.2-1.8,0.1c-0.2,0-0.4,0-0.6,0c-1.1,1.4-2.1,2.7-3.1,4s-1.9,2.5-2.7,3.7c0,0,0,0,0-0.1c-0.2,0.2-0.4,0.3-0.8,0.2
			c-0.4-0.1-0.8-0.3-1.1-0.6c-0.4-0.3-0.7-0.6-0.9-1c-0.2-0.4-0.2-0.7,0-1c0,0,0,0,0,0.1c1.2-1.5,2.1-2.9,2.9-4
			c0.8-1.1,1.5-2.2,2.2-3c-0.3-0.7-0.4-1.5-0.2-2.4c0.2-1.2,0.6-2.3,1.3-3.3c0.7-1,1.5-2.1,2.4-3.4c0.4-0.5,0.8-1.1,1.2-1.7
			c0.4-0.6,0.8-1.4,1.3-2.3c0.6,0.3,1.1,0.7,1.7,1c0.6,0.3,1,0.7,1.5,1.2c0.4,0.5,0.7,1,0.9,1.6c0.2,0.6,0.3,1.3,0.1,2
			c-0.1,0.3-0.2,0.7-0.3,1.2c-0.1,0.4-0.3,0.9-0.7,1.5c-1,1.1-1.5,1.6-2.5,2.7c-0.2,0.2-0.1,0.3,0.3,0.1c0.4-0.2,1-0.5,1.7-0.9
			c0.8-0.4,1.6-1,2.6-1.5s1.9-1.2,2.8-1.8c0.9-0.6,1.7-1.1,2.4-1.7c0.7-0.5,1.2-0.9,1.5-1.2c0.2,0,0.5,0.1,0.9,0.4
			c0.4,0.2,0.7,0.5,1,0.8c0.3,0.3,0.6,0.6,0.9,0.9c0.3,0.3,0.4,0.4,0.4,0.5c0.3,0.7,0.3,1.5,0,2.4c-0.3,0.9-0.9,2-1.6,3.1
			c-0.7,1.1-1.6,2.3-2.7,3.5c-1.1,1.2-2.2,2.5-3.3,3.8c-0.7,0.7-1.3,1.4-2,2.1c-0.6,0.7-1.3,1.5-1.9,2.2c-0.5,0.6-1,1.2-1.6,1.9
			c-0.6,0.7-1.2,1.4-1.7,2.2c-0.6,0.7-1,1.5-1.4,2.2c-0.4,0.7-0.6,1.4-0.7,1.8c-0.1,0.2,0.1,0.3,0.6,0.4c0.4,0,1-0.1,1.7-0.4
			c0.7-0.3,1.5-0.8,2.3-1.4c0.8-0.6,1.7-1.3,2.6-2.2c0.9-0.8,1.7-1.7,2.5-2.7c0,0,0,0-0.1,0c1-1.3,2-2.5,2.9-3.8
			c0.9-1.2,1.7-2.3,2.2-3.2c0.2-0.2,0.5-0.2,0.9-0.1c0.4,0.1,0.8,0.4,1.1,0.7c0.4,0.3,0.6,0.7,0.8,1.1c0.2,0.4,0.2,0.8-0.1,1
			c0,0,0-0.1,0.1-0.1c-0.9,1.2-1.3,1.8-2.2,3c-1.1,1.6-1.7,2.4-2.8,4C97.2,54.4,97.1,54.5,97.1,54.5z"/>
		<path class="st0" d="M125.3,41.2c0,0.2-0.2,0.4-0.5,0.6c-0.3,0.1-0.6,0.2-0.9,0.3c-0.4,0.1-0.7,0.1-1.1,0.1c-0.4,0-0.7-0.1-1-0.2
			c0.6,0.4,1.1,0.8,1.6,1.3c0.5,0.5,0.9,1,1.2,1.6c0.3,0.6,0.5,1.2,0.6,1.8c0.1,0.6,0,1.2-0.2,1.7c-0.2,0.3-0.3,0.6-0.5,0.9
			c-0.2,0.3-0.4,0.7-0.6,1c-0.4,0.8-0.9,1.6-1.3,2.4c-0.5,0.9-0.9,1.7-1.3,2.6c-0.4,0.8-0.8,1.6-1.1,2.3c-0.3,0.7-0.5,1.4-0.6,1.9
			c0,0.1,0,0.1-0.1,0.2c-0.1,0-0.1,0.1-0.2,0.1c0.2,0,0.3,0,0.4,0c1.2-0.4,2.4-1,3.5-1.9c1.1-0.9,2.2-1.9,3.3-3.1
			c1.1-1.2,2.1-2.4,3.1-3.7c1-1.3,1.9-2.6,2.8-3.8c0.3-0.3,0.6-0.6,0.7-0.8c0.2-0.2,0.3-0.5,0.5-0.8c0.1-0.2,0.5-0.2,0.9-0.1
			c0.4,0.1,0.9,0.3,1.3,0.6c0.4,0.3,0.7,0.6,1,1c0.2,0.4,0.2,0.7,0,1c-0.7,0.9-1,1.4-1.7,2.4c0,0,0,0,0,0.1
			c-1.7,2.3-3.5,4.6-5.4,6.9c-1.9,2.3-3.9,4.3-6.2,6.1c-0.4,0.3-0.8,0.7-1.3,1c-0.5,0.4-1.1,0.7-1.8,1c-0.7,0.3-1.4,0.6-2.1,0.8
			c-0.8,0.2-1.6,0.3-2.3,0.2c-1.9-0.2-3.3-0.9-4.1-2.1c-0.8-1.2-1.1-2.7-0.9-4.5c-1.8,1.7-3.6,3.1-5.5,4.3c-1.8,1.2-3.7,1.9-5.3,1.8
			c-1.4-0.1-2.7-0.6-3.6-1.3c-0.9-0.7-1.6-1.5-2-2.5c-0.4-1-0.7-2-0.8-3.1c-0.1-1.1-0.1-2.2,0.1-3.1c0.1-0.9,0.3-1.6,0.5-2.2
			c0.4-1.5,1.1-3.1,2-4.8c0.9-1.8,2-3.5,3.3-5.2c1.3-1.7,2.7-3.4,4.2-5.1c1.5-1.6,3.2-3.1,4.9-4.3c1.7-1.3,3.5-2.2,5.2-3
			c1.8-0.7,3.5-1.1,5.3-1c0.5,0,1,0.1,1.5,0.1c0.5,0.1,1,0.2,1.6,0.4c1,0.3,1.7,0.9,2.2,1.6c0.5,0.7,0.8,1.5,1,2.5
			c0.2,0.9,0.2,1.9,0.2,3C125.7,39.2,125.5,40.2,125.3,41.2z M118.3,41.1c0.4-0.2,0.9-0.2,1.4-0.1s1.1,0.4,1.6,0.7
			c-0.2-0.2-0.3-0.4-0.2-0.7c0-0.1,0-0.3,0-0.4c0-0.2,0-0.3,0-0.5c0.1-0.4,0.1-0.8,0.1-1.3c0-0.4-0.1-0.9-0.2-1.2
			c-0.1-0.4-0.3-0.7-0.6-0.9c-0.3-0.2-0.7-0.4-1.1-0.4c-1.4-0.1-3,0.4-4.6,1.5c-1.6,1.1-3.1,2.4-4.5,4.1c-1.4,1.7-2.8,3.4-3.9,5.3
			c-1.2,1.9-2.1,3.6-2.8,5.2c-0.2,0.4-0.4,1-0.6,1.6c-0.2,0.7-0.3,1.3-0.4,1.9c-0.1,0.4-0.1,0.9-0.1,1.3c0,0.4,0.1,0.7,0.3,1
			c0.2,0.3,0.5,0.5,0.8,0.6c0.4,0.1,0.9,0.1,1.5-0.1c0.6-0.1,1.4-0.6,2.3-1.3c0.9-0.7,1.9-1.6,2.9-2.6c1-1,2-2.1,3-3.2
			c1-1.1,1.9-2.2,2.5-3.1c0.6-1,1.2-2.3,1.6-3.5c0.5-1.1,0.8-2.1,1-2.9C118.3,41.7,118.3,41.5,118.3,41.1z"/>
		<path class="st0" d="M139,24.7c-1.4,5-4,11.4-5.6,14.1c-1.3,0.1-2,0.2-3.4,0.3c1.3-3.5,2.9-9.7,3.5-14
			C135.7,24.9,136.8,24.8,139,24.7z"/>
		<path class="st0" d="M137.9,58.1c0.3-1.7,1-3.3,1.9-4.9c1-1.6,2.1-2.8,3.4-3.7c0.7-0.8,1-1.3,1.7-2.1c1.4-1.9,2.7-3.7,4.2-5.6
			c1.4-1.8,2.9-3.6,4.4-5.3c0.3-0.3,0.6-0.6,0.8-0.9c0.2-0.3,0.5-0.6,0.8-0.9c0.8-1.1,1.8-2.2,2.9-3.4c1.1-1.2,2.6-2.6,4.6-4.2
			c0.6,0.3,1.2,0.8,2,1.4c0.8,0.6,1.5,1.3,2,2c0.5,0.7,0.8,1.5,0.9,2.2c0.1,0.8-0.3,1.4-1.1,2c0.1,0,0.1,0,0.2-0.1
			c-0.8,0.7-1.4,1.2-1.7,1.5c-0.3,0.4-0.7,0.8-1.1,1.3c-0.4,0.5-0.6,0.7-1,1.2c-1,1.4-1.8,2.8-2.4,4.4c-0.5,1.5-0.9,3.1-1.2,4.6
			c-0.2,0.8-0.3,1.7-0.4,2.5c-0.1,0.9-0.2,1.7-0.2,2.6c-0.2,1.4-0.3,2.2-0.4,3.6c-0.2,1.8-0.7,3.4-1.5,4.9c-0.8,1.5-1.7,2.7-2.9,3.7
			c-1.1,1-2.4,1.8-3.8,2.3c-1.4,0.5-2.9,0.7-4.5,0.6c-1.5-0.1-2.9-0.5-4-1.1c-1.1-0.6-1.9-1.3-2.5-2.2c-0.6-0.9-1-1.8-1.2-2.9
			C137.7,60.4,137.7,59.3,137.9,58.1z M151.3,47.4c0-0.3,0.1-0.6,0.2-1c0.1-0.3,0.2-0.7,0.2-1c-1,1.3-1.5,2-2.5,3.3c0,0,0,0-0.1,0.1
			c0.1,0.3,0.2,0.9,0.2,1.7c0.1,0.8,0.1,1.6,0.1,2.5c0,0.9-0.1,1.7-0.3,2.5c-0.2,0.8-0.5,1.3-0.9,1.7c-0.2-0.6-0.6-1-1.2-1.1
			c-0.6-0.1-1.1,0-1.7,0.2c-0.6,0.3-1.1,0.6-1.6,1.1c-0.5,0.5-0.8,1-0.9,1.5c0,0.2,0,0.4,0,0.8c0,0.3,0.1,0.6,0.2,0.9
			c0.3,0.6,0.7,1.1,1.3,1.4c0.6,0.3,1.1,0.5,1.7,0.6c0.6,0.1,1.1,0,1.6-0.3c0.5-0.3,0.9-0.6,1.3-1.1c0.4-0.5,0.7-1,1-1.7
			c0.3-0.6,0.5-1.3,0.6-2c0.2-1.4,0.2-3,0.4-4.5c0.1-0.8,0.2-1.7,0.2-2.6C150.9,49.3,151.1,48.3,151.3,47.4z"/>
		<path class="st0" d="M244.6,4.2c0.3-0.4,0.7-0.2,1.4,0.4c0.6,0.6,1.2,1.3,1.9,2.3c0.6,0.9,1.1,1.9,1.6,2.8s0.6,1.6,0.5,2
			c-1.6,2.6-3.6,5.3-5.9,8c-2.3,2.7-4.9,5.3-7.8,7.9c-2.9,2.6-5.9,5.2-9.2,7.8c-3.3,2.5-6.7,5-10.1,7.5c-3.5,2.4-7,4.8-10.6,7.1
			c-3.6,2.3-7.1,4.5-10.6,6.5c1.4,3.5,3.2,6.5,5.3,8.8c2.1,2.3,4.4,4.2,6.9,5.7c2.5,1.4,5.1,2.5,7.9,3.1c2.8,0.6,5.5,1,8.2,1.1
			c0.6,0,1.2,0,1.8,0c0.6,0,1.2,0,1.7,0c0.2,0.2,0.1,0.6-0.1,1.1c-0.2,0.5-0.6,1.1-1,1.7c-0.5,0.6-1,1.3-1.7,2
			c-0.6,0.7-1.2,1.4-1.9,1.9c-0.6,0.6-1.2,1.1-1.7,1.4c-0.5,0.4-0.9,0.6-1.1,0.6c-3-0.1-6.1-0.5-9.2-1.5c-3.1-0.9-6-2.4-8.7-4.3
			c-2.7-2-5-4.5-7-7.6c-2-3.1-3.4-6.8-4.2-11.3c-2.7,1.6-4.1,2.4-6.8,3.9c-1.8,2.3-3.3,4.5-4.6,6.3c-1.3,1.9-2.1,3.5-2.5,4.8
			c-0.2,0.4-0.7,0.8-1.5,1.2s-1.5,0.6-2.3,0.8c-0.8,0.2-1.5,0.2-2.1,0.1c-0.6-0.1-0.9-0.4-0.9-0.8c0-0.8,0.5-2,1.2-3.5
			c0.7-1.5,1.7-3.2,2.8-5c-0.2-0.3-0.4-0.7-0.5-1.1c-0.1-0.5-0.1-0.9-0.1-1.4c0-0.4,0.1-0.9,0.3-1.3c0.2-0.4,0.4-0.7,0.7-1
			c1.8-1,2.6-1.6,4.4-2.6c0.6-0.8,0.8-1.2,1.4-2.1c2.3-3.4,4.8-7.1,7.5-11.2c2.7-4.1,5.2-8.3,7.7-12.6s4.7-8.6,6.7-13
			c2-4.3,3.4-8.5,4.4-12.5c0,0,0,0,0-0.1c0.1-0.3,0.3-0.4,0.8-0.4c0.5,0,1,0.1,1.6,0.3c0.6,0.2,1.3,0.5,2,0.8c0.7,0.3,1.4,0.7,2,1
			c0.6,0.4,1.1,0.7,1.6,1.1c0.4,0.4,0.7,0.7,0.7,0.9c-0.6,3-1.7,6.1-3,9.3c-1.4,3.2-3,6.3-4.8,9.5c-1.8,3.1-3.8,6.2-5.9,9.3
			c-2.1,3.1-4.3,6-6.4,8.8c3.6-2.5,7.2-5.1,10.8-7.9c3.6-2.7,7.1-5.5,10.5-8.2c3.4-2.7,6.6-5.4,9.6-8.1c3-2.7,5.7-5.2,8.2-7.7
			c2.5-2.5,4.6-4.7,6.3-6.9c1.8-2.1,3.1-4,3.9-5.6C244.5,4.3,244.5,4.3,244.6,4.2z"/>
		<path class="st0" d="M237.8,34.4c0.6-0.3,1.3-0.2,2.1,0.2c0.8,0.4,1.5,1,2.1,1.7c0.6,0.8,1,1.6,1.3,2.6c0.2,1,0.1,1.9-0.4,2.8
			c0.1-0.1,0,0-0.1,0.2c-0.2,0.2-0.4,0.6-0.7,0.9c-0.3,0.4-0.6,0.8-1,1.4c-0.4,0.5-0.7,1-1,1.4c-0.7,1-1.5,2.2-2.4,3.4
			c-0.9,1.2-1.7,2.5-2.6,3.8c-0.9,1.3-1.7,2.5-2.5,3.7c-0.8,1.2-1.4,2.3-2,3.2c-0.5,0.9-0.9,1.7-1.2,2.3c-0.2,0.6-0.2,0.9,0,0.9
			c0.2,0,0.3,0,0.4,0c1.3-0.4,2.5-1,3.8-1.8c1.2-0.9,2.4-1.9,3.6-3c1.1-1.1,2.2-2.3,3.3-3.6c1.1-1.3,2.1-2.5,3.1-3.7
			c0.4-0.6,0.6-0.8,1.1-1.4c0.2-0.2,0.6-0.3,1-0.1c0.4,0.1,0.8,0.4,1.1,0.7s0.6,0.7,0.8,1.2c0.2,0.4,0.1,0.8-0.1,1
			c0,0,0-0.1,0.1-0.1c-2,2.6-4.2,5.1-6.7,7.8c-2.5,2.6-5,4.9-7.5,6.9c-0.4,0.3-0.9,0.6-1.5,1c-0.6,0.4-1.2,0.7-1.9,1
			c-0.7,0.3-1.4,0.6-2.2,0.8c-0.8,0.2-1.5,0.3-2.2,0.3c-1.5-0.1-2.6-0.7-3.2-1.9c-0.5-1.2-0.7-2.7-0.4-4.4c0.2-1.3,0.7-2.7,1.3-4
			c0,0,0,0-0.1,0.1c0.8-2,2-4.3,3.5-6.9c1.5-2.6,3-5.2,4.6-7.8c1-1.8,2-3.5,3-5.2c1-1.7,1.8-3.2,2.5-4.6
			C237.4,34.8,237.5,34.7,237.8,34.4z M247,16.2c0.5-0.1,1.1,0.2,1.7,0.8c0.7,0.6,1.3,1.4,1.9,2.2c0.6,0.8,1.1,1.7,1.4,2.5
			c0.4,0.8,0.5,1.4,0.4,1.8c-0.4,1.2-0.9,2.2-1.5,3c-0.5,0.9-1.1,1.8-1.6,2.7c-0.6,0.9-1.1,1.8-1.7,2.8c-0.6,0.9-1.2,2.1-1.7,3.3
			c-0.5-0.1-1-0.4-1.5-0.9c-0.5-0.5-1-1-1.5-1.6s-0.8-1.2-1-1.9c-0.3-0.6-0.4-1.2-0.3-1.6c0.2-0.8,0.5-1.7,0.8-2.6
			c0.3-1,0.7-1.9,1.2-3c0.4-1,0.9-2.1,1.3-3.2c0.4-1.1,0.7-2.1,1-3.1C246.2,17,246.5,16.7,247,16.2z"/>
		<path class="st0" d="M249.2,37.3c-0.7,0.2-1.3,0.2-1.8,0c-0.5-0.3-0.8-0.6-0.9-1.1c-0.1-0.5-0.1-1,0.2-1.5c0.3-0.6,0.7-1,1.4-1.5
			c1.6-1,3.2-1.9,4.8-2.7c1.6-0.8,3.2-1.5,4.8-2.2c3-5.1,5.3-9.6,6.8-13.3c0.6-0.3,1.4-0.3,2.2,0.1c0.9,0.4,1.6,0.9,2.3,1.6
			c0.7,0.7,1.2,1.6,1.6,2.5c0.4,0.9,0.4,1.9,0,2.7c-0.7,1.2-1,1.8-1.7,3c2.7-0.4,5.3-0.7,7.9-0.6c0.4,0,0.9,0,1.6,0
			c0.6,0,1.2,0.1,1.6,0.1c0.1,0.6,0,1.3-0.2,1.9c-0.2,0.7-0.5,1.4-0.9,2c-0.4,0.6-0.9,1.1-1.3,1.6c-0.5,0.4-1,0.7-1.5,0.6
			c-0.4,0-0.8-0.1-1.3-0.1c-0.4,0-0.9,0-1.3,0c-1.4,0-2.7,0-4.1,0.2c-1.4,0.1-3.6,0.2-4.3,0.7c-0.5,0.4-1.1,1.9-1.7,2.8
			c-0.6,0.9-1.2,1.8-1.7,2.6c-0.2,0.3-0.3,0.5-0.5,0.8c-0.5,0.8-1.1,1.8-2,3.1s-1.8,2.8-2.7,4.4c-1,1.6-2,3.3-3,5
			c-1,1.8-2,3.5-2.9,5.1c-0.9,1.6-1.6,3.2-2.2,4.5c-0.6,1.4-1,2.5-1.1,3.3c-0.1,0.1-0.1,0.2-0.1,0.3s0,0.1-0.1,0.2
			c0.2,0,0.3,0,0.4,0c1.2-0.4,2.3-1,3.4-1.9c1.1-0.9,2.2-1.9,3.2-3c1-1.1,2-2.3,3-3.6c1-1.3,1.9-2.5,2.8-3.8c0,0,0,0-0.1,0
			c0.2-0.4,0.5-0.7,0.8-1c0.3-0.3,0.5-0.7,0.8-1c0.2-0.2,0.4-0.3,0.8-0.2c0.4,0.1,0.8,0.3,1.2,0.6c0.4,0.3,0.7,0.6,0.9,1
			c0.2,0.4,0.2,0.7,0.1,1c-0.8,1.1-1.2,1.6-2,2.7c-1.6,2.3-3.4,4.5-5.3,6.8c-1.9,2.3-3.9,4.3-6,6c-0.4,0.3-0.8,0.7-1.4,1
			c-0.6,0.4-1.2,0.7-1.9,1c-0.7,0.3-1.4,0.6-2.2,0.8c-0.8,0.2-1.5,0.3-2.3,0.3c-0.9,0-1.6-0.3-2.2-0.7c-0.6-0.4-1-1-1.3-1.6
			c-0.3-0.7-0.5-1.4-0.5-2.3c-0.1-0.9,0-1.8,0.2-2.8c0.1-0.4,0.2-0.9,0.3-1.4c0.1-0.5,0.3-0.9,0.4-1.3c0.6-2,1.4-4,2.3-6.1
			c0.9-2,1.9-4,3-6c1.1-2,2.2-3.9,3.4-5.9c1.2-1.9,2.4-3.8,3.6-5.7c0.3-0.5,0.5-0.7,0.8-1.2c-1.6,0.8-2.4,1.2-4,2
			C249.3,37.3,249.3,37.3,249.2,37.3z"/>
		<path class="st0" d="M287.7,54.1c-1.3,1.8-2.8,3.8-4.7,5.9c-1.8,2.2-3.9,4.3-6.2,6.3c-1.4,1.1-2.7,2-4,2.6c-1.3,0.6-2.5,1-3.5,1.3
			c-1.1,0.3-2.1,0.5-2.9,0.5c-0.9,0-1.5,0.1-2,0.1c-3.1-0.1-5.4-1-6.8-2.8s-1.9-4.3-1.5-7.4c0.4-2.7,1.2-5.4,2.6-7.9
			s3.3-5.4,5.8-8.4c0.9-1,2-2,3.3-3.2c1.3-1.1,2.8-2.2,4.3-3.1c1.6-0.9,3.2-1.7,4.9-2.3c1.7-0.6,3.3-0.8,4.9-0.8
			c1.6,0.1,2.9,0.6,3.7,1.7c0.8,1.1,1,2.5,0.8,4.2c-0.3,1.6-1,3.2-2.2,4.8c-0.5,0.5-1,0.8-1.5,0.9c-0.5,0.1-0.9,0-1.3-0.2
			c-0.3-0.2-0.6-0.6-0.7-1.1c-0.1-0.5-0.1-1.3,0.1-1.8c0.3-0.6,0.8-1.3,0.8-1.9c0-0.2,0-0.3-0.1-0.5c-0.1-0.1-0.3-0.1-0.6,0
			c-1.6,0.3-3.2,1.1-4.8,2.3c-1.6,1.2-3.1,2.6-4.4,4.2c-1.4,1.6-2.6,3.2-3.6,5c-1,1.7-1.8,3.2-2.3,4.6c-0.3,1-0.4,1.4-0.7,2.4
			c-0.1,0.6-0.1,1.2-0.1,1.8c0,0.6,0.1,1.1,0.2,1.6c0.1,0.5,0.4,0.9,0.7,1.3c0.3,0.4,0.7,0.6,1.2,0.8c0,0-0.1,0-0.1-0.1
			c0.8,0.2,1.7,0.2,2.8-0.1c1.1-0.3,2.3-0.9,3.6-1.7c1.3-0.8,2.7-1.9,4.1-3.2c1.4-1.3,2.9-2.9,4.3-4.6c0.8-1,1.5-1.9,2.2-3
			c0.7-1,1.4-2,2-2.9c0.4-0.5,0.9-0.8,1.5-0.8c0.6,0,1,0.1,1.4,0.4c0.4,0.3,0.6,0.7,0.7,1.2c0.1,0.5-0.1,1.2-0.7,1.9
			C288.6,52.8,288.3,53.2,287.7,54.1z"/>
		<path class="st0" d="M315.7,57.6c-0.8,1-1.8,2.3-3,3.8c-1.2,1.5-2.6,2.9-4.1,4.4c-1.5,1.4-3,2.6-4.5,3.6c-1.5,1-3,1.5-4.3,1.5
			c-0.8,0-1.6-0.1-2.4-0.4c-0.8-0.3-1.4-0.8-1.9-1.4c-0.5-0.6-0.8-1.5-1-2.5c-0.2-1-0.1-2.3,0.1-3.6c0.3-1.2,0.6-2.4,1.1-3.5
			s0.9-2.4,1.6-3.7s1.3-2.7,2.1-4.2c0.8-1.5,1.7-3.2,2.8-5.1c0.5-0.8,0.9-1.6,1.2-2.3c0.3-0.7,0.5-1.3,0.6-1.7
			c-1.2,1-1.7,1.5-2.9,2.5c-1.6,1.3-3,2.6-4.3,3.9c-1.3,1.3-3.1,2.8-4.1,4.3c-1.5,2.1-2.8,5.3-4,7.9c-1.2,2.7-2.2,5.4-2.9,8.1
			c-0.2,0.4-0.6,0.6-1.3,0.6c-0.7,0-1.4-0.2-2.1-0.6c-0.7-0.3-1.4-0.8-2-1.3c-0.6-0.5-0.8-1-0.8-1.6c0.5-2.4,1.3-4.9,2.2-7.4
			c1-2.5,2.1-4.9,3.4-7.4c1.3-2.5,2.7-4.9,4.1-7.4c1.5-2.5,3-4.9,4.4-7.4c1-1.5,1.4-2.3,2.4-3.8c0.9-1.5,1.8-3.1,2.7-4.7
			c0.9-1.6,1.8-3.1,2.6-4.7c0.8-1.5,1.6-3,2.3-4.4c0.7-1.4,1.3-2.7,1.8-3.9c0.6-0.3,1.4-0.3,2.2,0c0.9,0.3,1.6,0.9,2.3,1.6
			c0.7,0.7,1.2,1.5,1.6,2.5c0.4,0.9,0.4,1.9,0,2.7c-0.3,0.6-0.8,1.5-1.4,2.6c-0.7,1.1-1.4,2.4-2.2,3.8c-0.8,1.4-1.7,2.8-2.7,4.3
			c-0.9,1.5-1.9,2.9-2.7,4.3c-0.4,0.6-0.6,0.9-1,1.6c1.4-1,2.7-1.8,4.1-2.4c1.4-0.6,2.8-1.1,4.1-1.2c0.5,0,1.1,0.2,1.6,0.7
			c0.5,0.5,1,1.1,1.4,1.8c0.4,0.7,0.7,1.5,0.8,2.3s0,1.6-0.2,2.2c-1,2.1-2.1,4-3.1,5.8c-1,1.8-1.9,3.3-2.6,4.6
			c-0.6,1.1-1.2,2.2-1.8,3.1c-0.5,0.9-1,1.9-1.4,2.8c-0.4,0.9-0.8,1.9-1.1,2.8c-0.3,1-0.7,2-0.9,3.1c0-0.1,0.2-0.2,0.4-0.4
			c0,0,0,0-0.1,0c1.2-0.6,2.7-1.6,4.4-3.1c1.8-1.5,3.6-3.4,5.5-5.9c0.5-0.6,1-1.3,1.5-1.9c0.5-0.6,0.9-1.2,1.3-1.8
			c0.5-0.7,0.7-1.1,1.1-1.8c0.2-0.2,0.5-0.3,0.9-0.2c0.4,0.1,0.9,0.3,1.2,0.6c0.4,0.3,0.7,0.6,0.9,1c0.2,0.4,0.2,0.7,0,1
			c0,0,0-0.1,0.1-0.1C318.2,54.1,317.4,55.3,315.7,57.6C315.8,57.6,315.7,57.6,315.7,57.6z"/>
		<path class="st0" d="M339.7,45.3c-2.4,3.7-5.2,6.8-8.5,9.2c-3.3,2.5-6.8,4.3-10.5,5.6c-0.1,1.1-0.1,2.1,0.2,3.1
			c0.3,1,0.8,1.5,1.8,1.7c0,0-0.1,0-0.1-0.1c0.8,0.2,1.7,0.1,2.8-0.2c1.1-0.3,2.3-0.9,3.6-1.8c1.3-0.8,2.7-2,4.1-3.3
			c1.4-1.4,2.9-3,4.3-4.8c0.8-1,1.5-2,2.2-3c0.7-1,1.4-2,2-3c0.4-0.5,0.9-0.8,1.5-0.9c0.5-0.1,1,0.1,1.4,0.3s0.6,0.7,0.7,1.2
			c0.1,0.5-0.1,1.2-0.6,1.9c-0.6,0.9-0.9,1.3-1.5,2.2c-1.3,1.8-2.8,3.9-4.7,6.1c-1.8,2.2-3.9,4.4-6.2,6.5c-1.4,1.2-2.7,2.1-4,2.7
			c-1.3,0.6-2.5,1.1-3.5,1.5c-1.1,0.3-2.1,0.5-2.9,0.6c-0.9,0.1-1.5,0.1-2,0.1c-3.1,0-5.4-0.8-6.8-2.6s-1.9-4.2-1.5-7.4
			c0.4-2.7,1.2-5.4,2.6-8s3.3-5.5,5.8-8.5c0.9-1,2-2.1,3.3-3.3c1.3-1.2,2.8-2.2,4.3-3.2c1.6-1,3.2-1.8,4.9-2.5c1.7-0.6,3.3-1,4.9-1
			c1.6,0,2.9,0.5,3.7,1.5c0.8,1,1.1,2.5,0.8,4.3c-0.1,0.8-0.4,1.6-0.8,2.5C340.9,43.5,340.3,44.4,339.7,45.3
			C339.7,45.3,339.7,45.3,339.7,45.3z M336.6,40.4c-1.4,0.3-2.9,1-4.3,2c-1.4,1-2.7,2.2-4,3.6c-1.2,1.4-2.4,2.9-3.4,4.4
			c-1,1.6-1.9,3-2.6,4.4c2.8-1.2,5.5-2.8,7.9-4.9c2.4-2,4.5-4.5,6.2-7.3c0,0,0,0,0,0.1c0.2-0.3,0.4-0.7,0.5-1
			c0.1-0.3,0.2-0.6,0.3-0.8C337.4,40.5,337.2,40.2,336.6,40.4z"/>
		<path class="st0" d="M371.2,55.7c-0.8,1.1-1.8,2.4-3,4c-1.2,1.6-2.6,3.1-4.1,4.5c-1.5,1.5-3,2.7-4.5,3.8s-3,1.6-4.3,1.7
			c-0.8,0-1.6-0.1-2.4-0.3c-0.8-0.3-1.4-0.7-1.9-1.3c-0.5-0.6-0.8-1.4-1-2.4c-0.2-1-0.1-2.3,0.1-3.6c0.3-1.2,0.6-2.4,1.1-3.6
			c0.4-1.2,0.9-2.4,1.6-3.7c0.6-1.3,1.3-2.7,2.1-4.3c0.8-1.5,1.7-3.3,2.8-5.2c0.5-0.8,0.9-1.6,1.2-2.3c0.3-0.7,0.5-1.3,0.6-1.7
			c-1.2,1-1.7,1.6-2.9,2.6c-1.7,1.5-3.2,2.9-4.7,4.4c-1.4,1.5-3.2,3.1-4.3,4.8c-1.4,2.1-2.6,5.1-3.7,7.7c-1.1,2.6-2,5.3-2.6,7.9
			c-0.2,0.4-0.6,0.7-1.3,0.6c-0.7,0-1.4-0.2-2.1-0.5c-0.7-0.3-1.4-0.7-2-1.2c-0.6-0.5-0.8-1-0.8-1.5c0.4-1.8,0.8-3.6,1.4-5.3
			c0.6-1.7,1.2-3.4,2-5.1c0.7-1.7,1.5-3.3,2.3-5c0.8-1.6,1.7-3.3,2.5-5c1-1.9,1.9-3.9,2.8-5.7c0.9-1.9,1.7-3.6,2.5-5.3
			c0.5-0.3,1.1-0.3,1.8-0.1c0.7,0.2,1.4,0.5,2,1c0.6,0.5,1.2,1,1.7,1.7c0.5,0.7,0.8,1.4,0.9,2.2c1.7-1.5,3.5-2.8,5.2-3.9
			c1.8-1.1,3.6-1.8,5.3-2c0.5,0,1.1,0.2,1.6,0.7c0.5,0.5,1,1.1,1.4,1.8c0.4,0.7,0.7,1.5,0.8,2.3c0.1,0.8,0,1.6-0.2,2.2
			c-1,2.1-2.1,4.1-3.1,5.9c-1,1.8-1.9,3.4-2.6,4.7c-0.6,1.2-1.2,2.2-1.8,3.2c-0.5,1-1,1.9-1.4,2.9c-0.4,0.9-0.8,1.9-1.1,2.9
			s-0.7,2-0.9,3.2c0-0.1,0.2-0.2,0.4-0.4c0,0,0,0-0.1,0c1.2-0.7,2.7-1.7,4.4-3.3c1.8-1.5,3.6-3.6,5.5-6.2c0.5-0.7,1-1.3,1.5-1.9
			c0.5-0.6,0.9-1.3,1.3-1.9c0.5-0.7,0.7-1.1,1.1-1.8c0.2-0.2,0.5-0.3,0.9-0.2s0.9,0.2,1.2,0.5c0.4,0.3,0.7,0.6,0.9,0.9
			c0.2,0.4,0.2,0.7,0,1c0,0,0-0.1,0.1-0.1C373.7,52,372.8,53.2,371.2,55.7C371.2,55.7,371.2,55.7,371.2,55.7z"/>
	</g>
</g>
</svg>
